<svg xmlns="http://www.w3.org/2000/svg" xmlns:xlink="http://www.w3.org/1999/xlink" width="48" zoomAndPan="magnify" viewBox="0 0 36 36.000001" height="48" preserveAspectRatio="xMidYMid meet" version="1.0"><defs><clipPath id="2624d0a810"><path d="M 2.238281 8.398438 L 33.617188 8.398438 L 33.617188 26.644531 L 2.238281 26.644531 Z M 2.238281 8.398438 " clip-rule="nonzero"/></clipPath></defs><g clip-path="url(#2624d0a810)"><path fill="#000000" d="M 32.769531 26.597656 L 3.085938 26.597656 C 2.855469 26.597656 2.660156 26.519531 2.5 26.355469 C 2.339844 26.195312 2.257812 26 2.257812 25.769531 C 2.257812 25.539062 2.339844 25.34375 2.5 25.183594 C 2.660156 25.019531 2.855469 24.941406 3.085938 24.941406 L 32.769531 24.941406 C 32.996094 24.941406 33.191406 25.019531 33.351562 25.183594 C 33.515625 25.34375 33.59375 25.539062 33.59375 25.769531 C 33.59375 26 33.515625 26.195312 33.351562 26.355469 C 33.191406 26.519531 32.996094 26.597656 32.769531 26.597656 Z M 32.769531 18.328125 L 3.085938 18.328125 C 2.855469 18.328125 2.660156 18.246094 2.5 18.085938 C 2.339844 17.921875 2.257812 17.726562 2.257812 17.5 C 2.257812 17.269531 2.339844 17.074219 2.5 16.914062 C 2.660156 16.75 2.855469 16.667969 3.085938 16.667969 L 32.769531 16.667969 C 32.996094 16.667969 33.191406 16.75 33.351562 16.914062 C 33.515625 17.074219 33.59375 17.269531 33.59375 17.5 C 33.59375 17.726562 33.515625 17.921875 33.351562 18.085938 C 33.191406 18.246094 32.996094 18.328125 32.769531 18.328125 Z M 32.769531 10.058594 L 3.085938 10.058594 C 2.855469 10.058594 2.660156 9.976562 2.5 9.816406 C 2.339844 9.652344 2.257812 9.457031 2.257812 9.230469 C 2.257812 9 2.339844 8.804688 2.5 8.644531 C 2.660156 8.480469 2.855469 8.398438 3.085938 8.398438 L 32.769531 8.398438 C 32.996094 8.398438 33.191406 8.480469 33.351562 8.644531 C 33.515625 8.804688 33.59375 9 33.59375 9.230469 C 33.59375 9.457031 33.515625 9.652344 33.351562 9.816406 C 33.191406 9.976562 32.996094 10.058594 32.769531 10.058594 Z M 32.769531 10.058594 " fill-opacity="1" fill-rule="nonzero"/></g></svg>