<svg xmlns="http://www.w3.org/2000/svg" xmlns:xlink="http://www.w3.org/1999/xlink" width="48" zoomAndPan="magnify" viewBox="0 0 36 36.000001" height="48" preserveAspectRatio="xMidYMid meet" version="1.0"><defs><clipPath id="58c6542c69"><path d="M 1.902344 2.546875 L 34 2.546875 L 34 31.734375 L 1.902344 31.734375 Z M 1.902344 2.546875 " clip-rule="nonzero"/></clipPath></defs><g clip-path="url(#58c6542c69)"><path fill="#000000" d="M 29.398438 7.496094 L 25.695312 7.496094 L 25.695312 7.082031 C 25.695312 4.558594 23.664062 2.507812 21.167969 2.507812 L 14.582031 2.507812 C 12.082031 2.507812 10.050781 4.558594 10.050781 7.082031 L 10.050781 7.496094 L 6.347656 7.496094 C 3.847656 7.496094 1.820312 9.546875 1.820312 12.070312 L 1.820312 27.035156 C 1.820312 29.558594 3.847656 31.609375 6.347656 31.609375 L 29.398438 31.609375 C 31.898438 31.609375 33.925781 29.558594 33.925781 27.035156 L 33.925781 12.070312 C 33.925781 9.546875 31.898438 7.496094 29.398438 7.496094 Z M 12.523438 7.082031 C 12.523438 5.933594 13.445312 5 14.582031 5 L 21.167969 5 C 22.300781 5 23.222656 5.933594 23.222656 7.082031 L 23.222656 7.496094 L 12.523438 7.496094 Z M 23.222656 9.992188 L 23.222656 29.117188 L 12.523438 29.117188 L 12.523438 9.992188 Z M 4.289062 27.035156 L 4.289062 12.070312 C 4.289062 10.921875 5.210938 9.992188 6.347656 9.992188 L 10.050781 9.992188 L 10.050781 29.117188 L 6.347656 29.117188 C 5.210938 29.117188 4.289062 28.183594 4.289062 27.035156 Z M 31.457031 27.035156 C 31.457031 28.183594 30.535156 29.117188 29.398438 29.117188 L 25.695312 29.117188 L 25.695312 9.992188 L 29.398438 9.992188 C 30.535156 9.992188 31.457031 10.921875 31.457031 12.070312 Z M 31.457031 27.035156 " fill-opacity="1" fill-rule="nonzero"/></g></svg>