<svg xmlns="http://www.w3.org/2000/svg" xmlns:xlink="http://www.w3.org/1999/xlink" width="48" zoomAndPan="magnify" viewBox="0 0 36 36.000001" height="48" preserveAspectRatio="xMidYMid meet" version="1.0"><defs><clipPath id="83256b320d"><path d="M 5 4.4375 L 31.480469 4.4375 L 31.480469 30.707031 L 5 30.707031 Z M 5 4.4375 " clip-rule="nonzero"/></clipPath></defs><g clip-path="url(#83256b320d)"><path fill="#000000" d="M 24.074219 21.996094 C 25.691406 20.085938 26.578125 17.6875 26.578125 15.148438 C 26.578125 12.320312 25.480469 9.660156 23.492188 7.65625 C 21.503906 5.65625 18.859375 4.554688 16.046875 4.554688 C 13.234375 4.554688 10.589844 5.65625 8.601562 7.65625 C 4.496094 11.789062 4.496094 18.507812 8.601562 22.640625 C 10.589844 24.640625 13.234375 25.742188 16.046875 25.742188 C 18.570312 25.742188 20.953125 24.851562 22.851562 23.222656 L 29.921875 30.335938 C 30.089844 30.503906 30.3125 30.589844 30.53125 30.589844 C 30.753906 30.589844 30.972656 30.503906 31.140625 30.335938 C 31.480469 29.996094 31.480469 29.449219 31.140625 29.109375 Z M 9.820312 21.414062 C 6.386719 17.957031 6.386719 12.339844 9.820312 8.882812 C 13.253906 5.433594 18.839844 5.429688 22.273438 8.882812 C 23.9375 10.558594 24.851562 12.78125 24.851562 15.148438 C 24.851562 17.515625 23.9375 19.738281 22.273438 21.414062 C 18.839844 24.867188 13.253906 24.867188 9.820312 21.414062 Z M 9.820312 21.414062 " fill-opacity="1" fill-rule="nonzero"/></g></svg>